<?xml version="1.0" encoding="utf-8"?>
<!-- Generator: Adobe Illustrator 24.1.1, SVG Export Plug-In . SVG Version: 6.00 Build 0)  -->
<svg version="1.1" id="Layer_1" xmlns="http://www.w3.org/2000/svg" xmlns:xlink="http://www.w3.org/1999/xlink" x="0px" y="0px"
	 viewBox="0 0 128 128" style="enable-background:new 0 0 128 128;" xml:space="preserve">
<style type="text/css">
	.st0{fill:#B3E8FF;}
	.st1{fill:#D9F5FF;}
	.st2{fill:#6CD9FF;}
	.st3{fill:#B6FFCE;}
	.st4{fill:#DCFFE6;}
	.st5{fill:#78FF9E;}
	.st6{fill:#FFB6D4;}
	.st7{fill:#FFD9EA;}
	.st8{fill:#FF9FCB;}
</style>
<g>
	<polygon class="st0" points="50,118 12.32,92.62 12.32,27.26 50,52.64 	"/>
</g>
<g>
	<polygon class="st1" points="49.9,52.93 12.32,27.26 49.9,5.27 87.48,27.26 	"/>
</g>
<g>
	<polygon class="st2" points="87.68,92.62 50,118 50,52.64 87.68,27.26 	"/>
</g>
<g>
	<polygon class="st3" points="87,122.04 64,106.55 64,66.65 87,82.14 	"/>
</g>
<g>
	<polygon class="st4" points="86.94,82.32 64,66.65 86.94,53.23 109.88,66.65 	"/>
</g>
<g>
	<polygon class="st5" points="110,106.55 87,122.04 87,82.14 110,66.65 	"/>
</g>
<g>
	<polygon class="st6" points="87.5,67.04 75,60.5 75,43.67 87.5,50.2 	"/>
</g>
<g>
	<polygon class="st7" points="87.47,50.28 75,43.67 87.47,38 99.93,43.67 	"/>
</g>
<g>
	<polygon class="st8" points="100,60.5 87.5,67.04 87.5,50.2 100,43.67 	"/>
</g>
<g>
	<polygon class="st6" points="64.5,123.04 52,116.5 52,99.67 64.5,106.2 	"/>
</g>
<g>
	<polygon class="st7" points="64.47,106.28 52,99.67 64.47,94 76.93,99.67 	"/>
</g>
<g>
	<polygon class="st8" points="77,116.5 64.5,123.04 64.5,106.2 77,99.67 	"/>
</g>
</svg>
